<svg width="146" height="48" viewBox="0 0 146 48" fill="none" xmlns="http://www.w3.org/2000/svg">
<path d="M13.2778 22.3182C14.1 19.2499 17.2539 16.096 20.3222 15.2737L39.4512 10.1474C42.5194 9.32513 44.3402 11.1459 43.5179 14.2141L38.3916 33.3431C37.5693 36.4114 34.4154 39.5653 31.3471 40.3875L12.2181 45.5139C9.14987 46.3362 7.32912 44.5154 8.15138 41.4471L13.2778 22.3182Z" fill="#EC5000" fill-opacity="0.6"/>
<path d="M5.60881 14.6492C6.43107 11.581 9.58497 8.4271 12.6533 7.60484L31.7822 2.47847C34.8505 1.65621 36.6713 3.47695 35.849 6.54522L30.7226 25.6742C29.9004 28.7424 26.7465 31.8963 23.6782 32.7186L4.54919 37.845C1.48092 38.6672 -0.339825 36.8465 0.482439 33.7782L5.60881 14.6492Z" fill="#EC5000"/>
<path d="M61.5243 30.2132H67.7963V33.9092H56.7363V14.2532H61.5243V30.2132Z" fill="white"/>
<path d="M68.5681 26.0693C68.5681 24.4639 68.8667 23.0546 69.4641 21.8413C70.0801 20.6279 70.9107 19.6946 71.9561 19.0413C73.0014 18.3879 74.1681 18.0613 75.4561 18.0613C76.5574 18.0613 77.5187 18.2853 78.3401 18.7333C79.1801 19.1813 79.8241 19.7693 80.2721 20.4973V18.2853H85.0601V33.9093H80.2721V31.6973C79.8054 32.4253 79.1521 33.0133 78.3121 33.4613C77.4907 33.9093 76.5294 34.1333 75.4281 34.1333C74.1587 34.1333 73.0014 33.8066 71.9561 33.1533C70.9107 32.4813 70.0801 31.5386 69.4641 30.3253C68.8667 29.0933 68.5681 27.6746 68.5681 26.0693ZM80.2721 26.0973C80.2721 24.9026 79.9361 23.9599 79.2641 23.2693C78.6107 22.5786 77.8081 22.2333 76.8561 22.2333C75.9041 22.2333 75.0921 22.5786 74.4201 23.2693C73.7667 23.9413 73.4401 24.8746 73.4401 26.0693C73.4401 27.2639 73.7667 28.2159 74.4201 28.9253C75.0921 29.6159 75.9041 29.9613 76.8561 29.9613C77.8081 29.9613 78.6107 29.6159 79.2641 28.9253C79.9361 28.2346 80.2721 27.2919 80.2721 26.0973Z" fill="white"/>
<path d="M103.924 18.2852L94.124 41.3292H88.972L92.556 33.3772L86.2 18.2852H91.548L95.16 28.0572L98.744 18.2852H103.924Z" fill="white"/>
<path d="M119.823 25.8453C119.823 26.2933 119.795 26.7599 119.739 27.2453H108.903C108.978 28.2159 109.286 28.9626 109.827 29.4853C110.387 29.9893 111.069 30.2413 111.871 30.2413C113.066 30.2413 113.897 29.7373 114.363 28.7293H119.459C119.198 29.7559 118.722 30.6799 118.031 31.5013C117.359 32.3226 116.51 32.9666 115.483 33.4333C114.457 33.8999 113.309 34.1333 112.039 34.1333C110.509 34.1333 109.146 33.8066 107.951 33.1533C106.757 32.4999 105.823 31.5666 105.151 30.3533C104.479 29.1399 104.143 27.7213 104.143 26.0973C104.143 24.4733 104.47 23.0546 105.123 21.8413C105.795 20.6279 106.729 19.6946 107.923 19.0413C109.118 18.3879 110.49 18.0613 112.039 18.0613C113.551 18.0613 114.895 18.3786 116.071 19.0133C117.247 19.6479 118.162 20.5533 118.815 21.7293C119.487 22.9053 119.823 24.2773 119.823 25.8453ZM114.923 24.5853C114.923 23.7639 114.643 23.1106 114.083 22.6253C113.523 22.1399 112.823 21.8973 111.983 21.8973C111.181 21.8973 110.499 22.1306 109.939 22.5973C109.398 23.0639 109.062 23.7266 108.931 24.5853H114.923Z" fill="white"/>
<path d="M126.577 20.8892C127.137 20.0305 127.837 19.3585 128.677 18.8732C129.517 18.3692 130.451 18.1172 131.477 18.1172V23.1852H130.161C128.967 23.1852 128.071 23.4465 127.473 23.9692C126.876 24.4732 126.577 25.3692 126.577 26.6572V33.9092H121.789V18.2852H126.577V20.8892Z" fill="white"/>
<path d="M139.562 34.1333C138.199 34.1333 136.986 33.8999 135.922 33.4333C134.858 32.9666 134.018 32.3319 133.402 31.5293C132.786 30.7079 132.441 29.7933 132.366 28.7853H137.098C137.154 29.3266 137.406 29.7653 137.854 30.1013C138.302 30.4373 138.853 30.6053 139.506 30.6053C140.103 30.6053 140.561 30.4933 140.878 30.2693C141.214 30.0266 141.382 29.7186 141.382 29.3453C141.382 28.8973 141.149 28.5706 140.682 28.3653C140.215 28.1413 139.459 27.8986 138.414 27.6373C137.294 27.3759 136.361 27.1053 135.614 26.8253C134.867 26.5266 134.223 26.0693 133.682 25.4533C133.141 24.8186 132.87 23.9693 132.87 22.9053C132.87 22.0093 133.113 21.1973 133.598 20.4693C134.102 19.7226 134.83 19.1346 135.782 18.7053C136.753 18.2759 137.901 18.0613 139.226 18.0613C141.186 18.0613 142.726 18.5466 143.846 19.5173C144.985 20.4879 145.638 21.7759 145.806 23.3813H141.382C141.307 22.8399 141.065 22.4106 140.654 22.0933C140.262 21.7759 139.739 21.6173 139.086 21.6173C138.526 21.6173 138.097 21.7293 137.798 21.9533C137.499 22.1586 137.35 22.4479 137.35 22.8213C137.35 23.2693 137.583 23.6053 138.05 23.8293C138.535 24.0533 139.282 24.2773 140.29 24.5013C141.447 24.7999 142.39 25.0986 143.118 25.3973C143.846 25.6773 144.481 26.1439 145.022 26.7973C145.582 27.4319 145.871 28.2906 145.89 29.3733C145.89 30.2879 145.629 31.1093 145.106 31.8373C144.602 32.5466 143.865 33.1066 142.894 33.5173C141.942 33.9279 140.831 34.1333 139.562 34.1333Z" fill="white"/>
</svg>
