<svg width="147" height="46" viewBox="0 0 147 46" fill="none" xmlns="http://www.w3.org/2000/svg">
<path d="M58.096 23.792L63.024 11.6H70.32L58.096 35.504L45.904 11.6H53.2L58.096 23.792ZM77.4163 34.32C75.6029 34.32 74.0349 34.0107 72.7123 33.392C71.4109 32.752 70.4083 31.8667 69.7043 30.736C69.0003 29.584 68.6483 28.2187 68.6483 26.64C68.6483 25.04 68.9896 23.6747 69.6723 22.544C70.3549 21.392 71.3363 20.5067 72.6163 19.888C73.8963 19.2693 75.4323 18.96 77.2243 18.96C79.0163 18.96 80.5203 19.248 81.7363 19.824C82.9523 20.4 83.8803 21.2427 84.5203 22.352C85.1603 23.44 85.4803 24.784 85.4803 26.384C85.4803 26.64 85.4696 26.896 85.4483 27.152C85.4483 27.3867 85.4376 27.6 85.4163 27.792H71.6883V24.944H80.3603L79.1763 26.416C79.2829 26.2453 79.3789 26.0533 79.4643 25.84C79.5496 25.6267 79.5923 25.4453 79.5923 25.296C79.5923 24.6987 79.4856 24.1973 79.2723 23.792C79.0803 23.3653 78.7923 23.0453 78.4083 22.832C78.0456 22.5973 77.6083 22.48 77.0963 22.48C76.4563 22.48 75.9229 22.6293 75.4963 22.928C75.0696 23.2267 74.7496 23.6853 74.5363 24.304C74.3229 24.9013 74.2163 25.6693 74.2163 26.608C74.1949 27.44 74.3016 28.144 74.5363 28.72C74.7709 29.296 75.1123 29.744 75.5603 30.064C76.0083 30.3627 76.5629 30.512 77.2243 30.512C78.0349 30.512 78.7176 30.3733 79.2723 30.096C79.8483 29.7973 80.2963 29.3707 80.6163 28.816L85.6083 29.808C84.8189 31.3227 83.7416 32.4533 82.3763 33.2C81.0323 33.9467 79.3789 34.32 77.4163 34.32ZM93.2185 26.64C93.2185 27.344 93.3785 27.952 93.6985 28.464C94.0185 28.976 94.4558 29.3707 95.0105 29.648C95.5652 29.904 96.1625 30.032 96.8025 30.032C97.3358 30.032 97.8585 29.9573 98.3705 29.808C98.8825 29.6587 99.3518 29.4347 99.7785 29.136C100.227 28.816 100.6 28.432 100.899 27.984V33.168C100.387 33.488 99.7785 33.7653 99.0745 34C98.3705 34.2133 97.4425 34.32 96.2905 34.32C94.6052 34.32 93.1012 34.0107 91.7785 33.392C90.4558 32.752 89.4105 31.856 88.6425 30.704C87.8958 29.552 87.5225 28.1973 87.5225 26.64C87.5225 25.0613 87.8958 23.7067 88.6425 22.576C89.4105 21.424 90.4558 20.5387 91.7785 19.92C93.1012 19.28 94.6052 18.96 96.2905 18.96C97.4425 18.96 98.3705 19.0773 99.0745 19.312C99.7785 19.5253 100.387 19.7813 100.899 20.08V25.264C100.6 24.7947 100.205 24.4107 99.7145 24.112C99.2452 23.8133 98.7545 23.6 98.2425 23.472C97.7305 23.3227 97.2505 23.248 96.8025 23.248C96.1625 23.248 95.5652 23.3973 95.0105 23.696C94.4558 23.9947 94.0185 24.4 93.6985 24.912C93.3785 25.424 93.2185 26 93.2185 26.64ZM102.66 19.28H113.252V23.76H102.66V19.28ZM105.316 14.16H110.596V34H105.316V14.16ZM114.398 26.64C114.398 25.0613 114.772 23.696 115.518 22.544C116.265 21.392 117.289 20.5067 118.59 19.888C119.913 19.248 121.396 18.928 123.038 18.928C124.702 18.928 126.185 19.248 127.486 19.888C128.788 20.5067 129.812 21.392 130.558 22.544C131.326 23.696 131.71 25.0613 131.71 26.64C131.71 28.1973 131.326 29.552 130.558 30.704C129.812 31.856 128.788 32.752 127.486 33.392C126.185 34.0107 124.702 34.32 123.038 34.32C121.396 34.32 119.913 34.0107 118.59 33.392C117.289 32.752 116.265 31.856 115.518 30.704C114.772 29.552 114.398 28.1973 114.398 26.64ZM120.094 26.64C120.094 27.3227 120.222 27.9093 120.478 28.4C120.756 28.8693 121.118 29.232 121.566 29.488C122.014 29.7227 122.505 29.84 123.038 29.84C123.572 29.84 124.062 29.7227 124.51 29.488C124.958 29.232 125.321 28.8693 125.598 28.4C125.876 27.9093 126.014 27.3227 126.014 26.64C126.014 25.9573 125.876 25.3813 125.598 24.912C125.321 24.4213 124.958 24.048 124.51 23.792C124.062 23.536 123.572 23.408 123.038 23.408C122.505 23.408 122.014 23.536 121.566 23.792C121.118 24.048 120.756 24.4213 120.478 24.912C120.222 25.3813 120.094 25.9573 120.094 26.64ZM139.856 19.28V34H134.448V19.28H139.856ZM144.048 24.944C143.813 24.688 143.546 24.4853 143.248 24.336C142.97 24.1653 142.618 24.08 142.192 24.08C141.765 24.08 141.37 24.1973 141.008 24.432C140.645 24.6667 140.357 25.0187 140.144 25.488C139.952 25.9573 139.856 26.544 139.856 27.248L138.704 25.04C138.704 23.8667 138.938 22.8213 139.408 21.904C139.877 20.9867 140.496 20.2613 141.264 19.728C142.053 19.1733 142.874 18.896 143.728 18.896C144.261 18.896 144.773 19.024 145.264 19.28C145.754 19.5147 146.117 19.8133 146.352 20.176L144.048 24.944Z" fill="white"/>
<path d="M5.32384 12.3682C6.1461 9.30002 9.3 6.14609 12.3683 5.32383L31.4972 0.197465C34.5655 -0.624795 36.3863 1.19594 35.564 4.26421L30.4376 23.3932C29.6154 26.4614 26.4615 29.6153 23.3932 30.4376L4.26422 35.564C1.19595 36.3862 -0.624798 34.5655 0.197466 31.4972L5.32384 12.3682Z" fill="#8ECAE6"/>
<path d="M10.3239 18.3683C11.1461 15.3 14.3 12.1461 17.3683 11.3238L36.4973 6.19748C39.5655 5.37518 41.3863 7.19598 40.564 10.2642L35.4377 29.3932C34.6154 32.4615 31.4615 35.6154 28.3932 36.4376L9.26417 41.564C6.19595 42.3863 4.3752 40.5655 5.19746 37.4972L10.3239 18.3683Z" fill="#8ECAE6" fill-opacity="0.6"/>
</svg>
