<svg width="102" height="25" viewBox="0 0 102 25" fill="none" xmlns="http://www.w3.org/2000/svg">
<path d="M13.096 12.792L18.024 0.599998H25.32L13.096 24.504L0.904 0.599998H8.2L13.096 12.792ZM32.4163 23.32C30.6029 23.32 29.0349 23.0107 27.7123 22.392C26.4109 21.752 25.4083 20.8667 24.7043 19.736C24.0003 18.584 23.6483 17.2187 23.6483 15.64C23.6483 14.04 23.9896 12.6747 24.6723 11.544C25.3549 10.392 26.3363 9.50667 27.6163 8.888C28.8963 8.26933 30.4323 7.96 32.2243 7.96C34.0163 7.96 35.5203 8.248 36.7363 8.824C37.9523 9.4 38.8803 10.2427 39.5203 11.352C40.1603 12.44 40.4803 13.784 40.4803 15.384C40.4803 15.64 40.4696 15.896 40.4483 16.152C40.4483 16.3867 40.4376 16.6 40.4163 16.792H26.6883V13.944H35.3603L34.1763 15.416C34.2829 15.2453 34.3789 15.0533 34.4643 14.84C34.5496 14.6267 34.5923 14.4453 34.5923 14.296C34.5923 13.6987 34.4856 13.1973 34.2723 12.792C34.0803 12.3653 33.7923 12.0453 33.4083 11.832C33.0456 11.5973 32.6083 11.48 32.0963 11.48C31.4563 11.48 30.9229 11.6293 30.4963 11.928C30.0696 12.2267 29.7496 12.6853 29.5363 13.304C29.3229 13.9013 29.2163 14.6693 29.2163 15.608C29.1949 16.44 29.3016 17.144 29.5363 17.72C29.7709 18.296 30.1123 18.744 30.5603 19.064C31.0083 19.3627 31.5629 19.512 32.2243 19.512C33.0349 19.512 33.7176 19.3733 34.2723 19.096C34.8483 18.7973 35.2963 18.3707 35.6163 17.816L40.6083 18.808C39.8189 20.3227 38.7416 21.4533 37.3763 22.2C36.0323 22.9467 34.3789 23.32 32.4163 23.32ZM48.2185 15.64C48.2185 16.344 48.3785 16.952 48.6985 17.464C49.0185 17.976 49.4558 18.3707 50.0105 18.648C50.5652 18.904 51.1625 19.032 51.8025 19.032C52.3358 19.032 52.8585 18.9573 53.3705 18.808C53.8825 18.6587 54.3518 18.4347 54.7785 18.136C55.2265 17.816 55.5998 17.432 55.8985 16.984V22.168C55.3865 22.488 54.7785 22.7653 54.0745 23C53.3705 23.2133 52.4425 23.32 51.2905 23.32C49.6052 23.32 48.1012 23.0107 46.7785 22.392C45.4558 21.752 44.4105 20.856 43.6425 19.704C42.8958 18.552 42.5225 17.1973 42.5225 15.64C42.5225 14.0613 42.8958 12.7067 43.6425 11.576C44.4105 10.424 45.4558 9.53867 46.7785 8.92C48.1012 8.28 49.6052 7.96 51.2905 7.96C52.4425 7.96 53.3705 8.07733 54.0745 8.312C54.7785 8.52533 55.3865 8.78133 55.8985 9.08V14.264C55.5998 13.7947 55.2052 13.4107 54.7145 13.112C54.2452 12.8133 53.7545 12.6 53.2425 12.472C52.7305 12.3227 52.2505 12.248 51.8025 12.248C51.1625 12.248 50.5652 12.3973 50.0105 12.696C49.4558 12.9947 49.0185 13.4 48.6985 13.912C48.3785 14.424 48.2185 15 48.2185 15.64ZM57.66 8.28H68.252V12.76H57.66V8.28ZM60.316 3.16H65.596V23H60.316V3.16ZM69.3983 15.64C69.3983 14.0613 69.7716 12.696 70.5182 11.544C71.2649 10.392 72.2889 9.50667 73.5903 8.888C74.9129 8.248 76.3956 7.928 78.0383 7.928C79.7023 7.928 81.1849 8.248 82.4863 8.888C83.7876 9.50667 84.8116 10.392 85.5583 11.544C86.3263 12.696 86.7103 14.0613 86.7103 15.64C86.7103 17.1973 86.3263 18.552 85.5583 19.704C84.8116 20.856 83.7876 21.752 82.4863 22.392C81.1849 23.0107 79.7023 23.32 78.0383 23.32C76.3956 23.32 74.9129 23.0107 73.5903 22.392C72.2889 21.752 71.2649 20.856 70.5182 19.704C69.7716 18.552 69.3983 17.1973 69.3983 15.64ZM75.0943 15.64C75.0943 16.3227 75.2223 16.9093 75.4783 17.4C75.7556 17.8693 76.1183 18.232 76.5663 18.488C77.0143 18.7227 77.5049 18.84 78.0383 18.84C78.5716 18.84 79.0623 18.7227 79.5103 18.488C79.9583 18.232 80.3209 17.8693 80.5983 17.4C80.8756 16.9093 81.0143 16.3227 81.0143 15.64C81.0143 14.9573 80.8756 14.3813 80.5983 13.912C80.3209 13.4213 79.9583 13.048 79.5103 12.792C79.0623 12.536 78.5716 12.408 78.0383 12.408C77.5049 12.408 77.0143 12.536 76.5663 12.792C76.1183 13.048 75.7556 13.4213 75.4783 13.912C75.2223 14.3813 75.0943 14.9573 75.0943 15.64ZM94.8555 8.28V23H89.4475V8.28H94.8555ZM99.0475 13.944C98.8128 13.688 98.5462 13.4853 98.2475 13.336C97.9702 13.1653 97.6182 13.08 97.1915 13.08C96.7648 13.08 96.3702 13.1973 96.0075 13.432C95.6448 13.6667 95.3568 14.0187 95.1435 14.488C94.9515 14.9573 94.8555 15.544 94.8555 16.248L93.7035 14.04C93.7035 12.8667 93.9382 11.8213 94.4075 10.904C94.8768 9.98667 95.4955 9.26133 96.2635 8.728C97.0528 8.17333 97.8742 7.896 98.7275 7.896C99.2608 7.896 99.7728 8.024 100.264 8.28C100.754 8.51467 101.117 8.81333 101.352 9.176L99.0475 13.944Z" fill="white"/>
</svg>
